<?xml version="1.0" encoding="utf-8"?>
<!-- Generator: Adobe Illustrator 16.0.3, SVG Export Plug-In . SVG Version: 6.00 Build 0)  -->
<!DOCTYPE svg PUBLIC "-//W3C//DTD SVG 1.1//EN" "http://www.w3.org/Graphics/SVG/1.1/DTD/svg11.dtd">
<svg version="1.1" id="Layer_2" xmlns="http://www.w3.org/2000/svg" xmlns:xlink="http://www.w3.org/1999/xlink" x="0px" y="0px"
	 width="748px" height="844px" viewBox="0 0 748 844" enable-background="new 0 0 748 844" xml:space="preserve">
<g>
	<g>
		<path fill="#D5E9F2" d="M560.703,204.435c-45.637-66.381-156.615-66.381-156.615-66.381s-110.98,0-156.617,66.381
			c-41.885,60.923-41.488,144.17-41.488,144.17l40.451,51.859h157.654H561.74l40.451-51.859
			C602.191,348.605,602.588,265.358,560.703,204.435z"/>
		<path fill="#A8D7E9" d="M560.766,204.435c-17.892-26.024-45.826-41.845-73.18-51.464c14.152,8.808,27.035,20.033,36.878,34.35
			c41.885,60.924,41.487,144.17,41.487,144.17l-40.45,51.86H367.848H233.146l13.35,17.113h157.652h157.654l40.451-51.859
			C602.254,348.605,602.65,265.358,560.766,204.435z"/>
		<path fill="#002B43" d="M504.695,217.918c-42.525-32.153-158.691-32.153-201.216,0c-46.168,34.907-44.6,118.24-44.6,118.24
			h145.208h145.207C549.295,336.159,550.863,252.826,504.695,217.918z"/>
		<path fill="#000F16" d="M260.092,336.159c2.847-27.187,12.283-72.685,43.388-96.203c42.524-32.153,158.69-32.153,201.216,0
			c31.104,23.519,40.541,69.017,43.387,96.203h1.213c0,0,1.568-83.333-44.6-118.24c-42.525-32.153-158.691-32.153-201.216,0
			c-46.168,34.907-44.6,118.24-44.6,118.24H260.092z"/>
		<path fill="#D5E9F2" d="M445.057,150.5c0,3.437-2.787,6.224-6.224,6.224h-69.491c-3.438,0-6.224-2.787-6.224-6.224v-21.781
			c0-3.437,2.786-6.223,6.224-6.223h69.491c3.437,0,6.224,2.786,6.224,6.223V150.5z"/>
		<g>
			<polygon fill="#D5E9F2" points="385.586,139.091 394.921,51.967 407.367,51.967 422.588,139.61 			"/>
			<circle fill="#D5E9F2" cx="401.494" cy="51.967" r="15.039"/>
			<path fill="#A8D7E9" d="M410.881,40.221c0.963,1.982,1.504,4.208,1.504,6.56c0,8.307-6.734,15.04-15.039,15.04
				c-3.553,0-6.814-1.234-9.388-3.294c2.437,5.02,7.582,8.479,13.536,8.479c8.306,0,15.039-6.733,15.039-15.039
				C416.533,47.213,414.325,42.977,410.881,40.221z"/>
		</g>
		<polygon fill="#A8D7E9" points="246.434,400.464 561.74,400.464 602.191,348.605 205.982,348.605 		"/>
		<path fill="#A8D7E9" d="M445.057,140.317c0,2.188-1.394,3.96-3.111,3.96h-34.746c-1.719,0-3.111-1.772-3.111-3.96v-13.86
			c0-2.188,1.393-3.96,3.111-3.96h34.746c1.718,0,3.111,1.772,3.111,3.96V140.317z"/>
		<path fill="#FFFFFF" d="M342.023,166.664c-5.055-9.67-27.92-4.133-35.391-0.605c-6.104,2.881-17.149,9.267-24.191,16.039
			c-5.588,4.451-10.578,9.63-14.917,15.468c-3.604,4.851-10.407,14.844-6.046,21.212c4.797,7.003,12.895,0.932,16.918-3.112
			c10.472-10.526,18.513-21.802,32.71-28.213C318.09,184.298,347.981,178.064,342.023,166.664z"/>
		<path fill="#FFFFFF" d="M395.503,43.295c-7.081,1.712-4.374,16.509,4.339,8.543C406.768,45.505,399.511,41.521,395.503,43.295z"/>
		<path fill="#D5E9F2" d="M619.009,517.949l-61.624-106.282H404.772h-1.371H250.79l-61.624,106.282c0,0,2.639,44.286,17.502,84.769
			c22.85,62.232,44.631,87.125,44.631,87.125l75.422,29.125l76.681,7.051v0.127c0,0,0.514-0.064,0.687-0.064
			c0.172,0,0.685,0.064,0.685,0.064v-0.127l76.682-7.051l75.421-29.125c0,0,27.363-35.264,44.631-87.125
			C615.13,561.801,619.009,517.949,619.009,517.949z"/>
		<path fill="#A8D7E9" d="M557.385,411.667h-72.604l61.623,106.282c0,0-3.879,43.853-17.502,84.769
			c-17.268,51.861-24.997,72.515-44.631,87.125c-16.215,12.066-75.421,29.125-75.421,29.125l-41.065,3.775l35.617,3.275v0.127
			c0,0,0.513-0.064,0.686-0.064c0.172,0,0.686,0.064,0.686,0.064v-0.127l76.681-7.051l75.421-29.125
			c0,0,27.363-35.264,44.631-87.125c13.624-40.916,17.503-84.769,17.503-84.769L557.385,411.667z"/>
		<polygon fill="#A8D7E9" points="189.166,517.949 619.009,517.949 602.254,549.821 		"/>
		<path fill="#FFFFFF" d="M275.453,588.427c-1.223-15.419,9.307-36.684-8.299-44.826c-9.043-4.183-24.321-5.9-31.318,3.082
			c-2.576,3.307-3.876,7.474-4.118,11.794c-2.522,11.003,3.399,27.093,6.165,36.95c3.256,11.606,14.549,52.426,35.342,41.311
			C287.398,629.163,276.357,599.849,275.453,588.427z"/>
		<path fill="#FFFFFF" d="M298.064,433.862c-9.352-13.34-22.504-8.896-31.867,0.785c-20.833,12.682-42.953,64.493-11.459,69.562
			c18.157,2.921,23.721-19.205,29.871-31.164C290.252,462.075,307.244,446.958,298.064,433.862z"/>
		<path fill="#D5E9F2" d="M239.009,411.667c0,0-137.215-19.789-157.861-11.202s-27.245,38.118,22.914,68.353
			c48.671,29.339,77.015,37.332,77.015,37.332L239.009,411.667z"/>
		<path fill="#A8D7E9" d="M79.543,400.464c2.063-0.857,22.392-2.898,26.498-3.097c6.717,15.483-18.395,30.844,12.488,49.46
			c33.414,20.142,58.786,31.735,82.018,27.567l-19.471,31.754c0,0-28.344-7.993-77.015-37.332
			C53.902,438.583,58.896,409.051,79.543,400.464z"/>
		<path fill="#D5E9F2" d="M250.434,699.02c0,0,27.372,71.402,50.3,73.734c22.928,2.334,23.597-46.609,23.597-46.609L250.434,699.02z
			"/>
		<path fill="#A8D7E9" d="M305.884,719.088c-0.266,6.93-2.386,40.717-18.502,45c4.718,4.924,9.514,8.197,14.13,8.666
			c22.928,2.334,23.597-46.609,23.597-46.609L305.884,719.088z"/>
		<path fill="#D5E9F2" d="M489.236,726.145c0,0,35.021,53.799,80.119,42.559c18.865-4.701-10.891-69.684-10.891-69.684
			L489.236,726.145z"/>
		<path fill="#A8D7E9" d="M558.465,699.021l-18.779,7.357c7.564,19.016,19.52,54.242,5.814,57.658
			c-3.701,0.922-7.332,1.398-10.883,1.512c10.443,4.375,22.2,6.279,34.738,3.154C588.221,764.002,558.465,699.021,558.465,699.021z"
			/>
		<path fill="#3AEDB1" d="M445.125,290.152c-1.335-0.039-2.461,1.019-2.5,2.36c-0.005,0.147-0.439,11.051-7.372,16.771
			c-6.624,5.465-18.635,7.294-24.465,7.277c-5.448,0.238-17.841-1.813-24.466-7.277c-6.933-5.72-7.367-16.623-7.371-16.771
			c-0.04-1.342-1.166-2.399-2.5-2.36c-1.343,0.038-2.401,1.157-2.363,2.5c0.015,0.537,0.467,13.229,9.139,20.384
			c8.853,7.303,20.273,8.414,26.404,8.414c7.319,0,19.865-1.111,28.718-8.414c8.672-7.154,9.124-19.847,9.14-20.384
			C447.525,291.309,446.468,290.19,445.125,290.152z"/>
		<g>
			<path fill="#3AEDB1" d="M357.049,269.532c-1.905,0-3.46-1.533-3.482-3.443c-0.001-0.023-0.127-4.285-2.69-8.367
				c-3.306-5.263-9.16-7.93-17.401-7.93c-0.055,0-0.109,0-0.166,0c-17.783,0.077-20.23,14.979-20.325,15.614
				c-0.286,1.902-2.065,3.212-3.963,2.926c-1.903-0.286-3.213-2.061-2.927-3.963c1.116-7.416,8.234-21.462,27.186-21.544
				c0.064,0,0.135,0,0.199,0c26.48,0,27.052,22.95,27.055,23.183c0.021,1.924-1.52,3.502-3.443,3.524
				C357.076,269.532,357.063,269.532,357.049,269.532z"/>
		</g>
		<g>
			<path fill="#3AEDB1" d="M498.711,269.532c-1.905,0-3.461-1.533-3.482-3.443c-0.001-0.023-0.127-4.285-2.69-8.367
				c-3.306-5.263-9.161-7.93-17.401-7.93c-0.055,0-0.109,0-0.166,0c-17.783,0.077-20.23,14.979-20.325,15.614
				c-0.286,1.902-2.065,3.212-3.963,2.926c-1.903-0.286-3.214-2.061-2.927-3.963c1.116-7.416,8.234-21.462,27.186-21.544
				c0.064,0,0.134,0,0.199,0c26.48,0,27.051,22.95,27.055,23.183c0.021,1.924-1.52,3.502-3.443,3.524
				C498.738,269.532,498.725,269.532,498.711,269.532z"/>
		</g>
		<g>
			<path fill="#2A56F4" d="M214.043,308.044L50.18,443.569l0.151,0.183c-9.532,10.041-11.042,24.838-2.987,34.578
				c8.057,9.74,22.873,11.033,34.525,3.555l0.15,0.183l163.863-135.524L214.043,308.044z"/>
			<path fill="#0643F2" d="M239.679,338.886L88.154,464.206l-0.15-0.183c-11.652,7.479-26.47,6.186-34.525-3.555
				c-3.52-4.257-5.213-9.479-5.209-14.848c-7.789,9.909-8.564,23.318-1.081,32.366c8.056,9.74,22.872,11.033,34.524,3.555
				l0.15,0.183L245.727,346.2L239.679,338.886z"/>
			<circle fill="#2A56F4" cx="301.05" cy="268.5" r="118.84"/>
			<path fill="#0643F2" d="M415.156,234.459c7.873,41.218-6.367,85.347-40.986,113.979c-50.576,41.83-125.486,34.739-167.316-15.837
				c-10.383-12.555-17.749-26.61-22.187-41.285c3.628,18.999,11.95,37.38,25.149,53.338
				c41.829,50.576,116.739,57.667,167.316,15.837C415.154,329.044,428.596,278.904,415.156,234.459z"/>
			<circle fill="#0643F2" cx="300.661" cy="258.909" r="96.198"/>
			<circle fill="#000F16" cx="301.051" cy="268.5" r="96.151"/>
			<path opacity="0.3" fill="#FFFFFF" d="M84.915,447.256c-2.647,2.189-6.569,1.818-8.759-0.829l0,0
				c-2.189-2.647-1.818-6.568,0.83-8.758l111.967-92.603c2.646-2.19,6.568-1.819,8.758,0.829l0,0
				c2.189,2.646,1.818,6.568-0.829,8.758L84.915,447.256z"/>
		</g>
		<g>
			<path fill="#3AEDB1" d="M359.832,282.25c-4.42,0-8.029-3.558-8.082-7.99c-0.002-0.056-0.293-9.946-6.242-19.418
				c-7.672-12.212-21.258-18.402-40.381-18.402c-0.129,0-0.258,0-0.387,0.001c-41.268,0.178-46.946,34.761-47.168,36.233
				c-0.664,4.415-4.791,7.456-9.197,6.79c-4.415-0.664-7.455-4.781-6.791-9.196c2.59-17.21,19.108-49.806,63.088-49.995
				c0.15-0.001,0.311-0.001,0.461-0.001c61.455,0,62.778,53.261,62.785,53.8c0.051,4.465-3.526,8.126-7.99,8.178
				C359.896,282.25,359.863,282.25,359.832,282.25z"/>
		</g>
		<path opacity="0.3" fill="#FFFFFF" d="M323.143,202.934c-0.919-11.505-15.332-12.88-23.995-13.333
			c-8.853-0.465-21.333-0.013-43.852,14.503c-15.291,9.856-28.42,29.409-31.463,47.662c-2.087,12.521-1.921,30.629,8.647,39.687
			c10.131,8.682,26.305,3.753,33.186-6.521c7.26-10.84,5.107-26.016,9.316-38.128c4.871-14.016,11.422-22.277,24.83-27.057
			C307.831,216.888,324.086,214.738,323.143,202.934z"/>
	</g>
</g>
<path fill="#D5E9F2" d="M626.353,515.51c0,0,44.032,51.626,65.085,66.762c15.971,11.481,30.656-47.552-24.207-102.095
	c-53.646-53.334-98.559-63.168-98.559-63.168L626.353,515.51z"/>
<path fill="#A8D7E9" d="M667.23,480.177c-53.646-53.334-98.559-63.168-98.559-63.168l4.799,8.195
	c17.205,9.477,39.287,24.573,63.094,48.24c36.855,36.642,42.324,75.309,37.103,93.264c6.612,6.439,12.825,12.008,17.771,15.563
	C707.408,593.753,722.094,534.72,667.23,480.177z"/>
</svg>
