<?xml version="1.0" encoding="utf-8"?>
<!-- Generator: Adobe Illustrator 16.0.3, SVG Export Plug-In . SVG Version: 6.00 Build 0)  -->
<!DOCTYPE svg PUBLIC "-//W3C//DTD SVG 1.1//EN" "http://www.w3.org/Graphics/SVG/1.1/DTD/svg11.dtd">
<svg version="1.1" id="Layer_2" xmlns="http://www.w3.org/2000/svg" xmlns:xlink="http://www.w3.org/1999/xlink" x="0px" y="0px"
	 width="748px" height="789.197px" viewBox="0 0 748 789.197" enable-background="new 0 0 748 789.197" xml:space="preserve">
<path fill="#D5E9F2" d="M541.552,211.363c-45.636-66.38-156.616-66.38-156.616-66.38s-110.98,0-156.616,66.38
	c-41.885,60.924-41.488,144.17-41.488,144.17l40.451,51.859h157.653H542.59l40.45-51.859
	C583.04,355.533,583.438,272.287,541.552,211.363z"/>
<path fill="#A8D7E9" d="M541.613,211.363c-17.891-26.024-45.825-41.844-73.179-51.463c14.152,8.807,27.035,20.033,36.878,34.349
	c41.885,60.924,41.487,144.17,41.487,144.17l-40.45,51.86H348.696H213.995l13.349,17.113h157.654H542.65l40.451-51.859
	C583.102,355.533,583.499,272.287,541.613,211.363z"/>
<path fill="#002B43" d="M485.543,224.847c-42.524-32.153-158.69-32.153-201.215,0c-46.167,34.907-44.599,118.24-44.599,118.24
	h145.207h145.207C530.143,343.087,531.711,259.754,485.543,224.847z"/>
<path fill="#000F16" d="M240.94,343.087c2.847-27.187,12.283-72.685,43.387-96.203c42.525-32.153,158.691-32.153,201.215,0
	c31.105,23.519,40.541,69.017,43.388,96.203h1.212c0,0,1.568-83.333-44.6-118.24c-42.524-32.153-158.69-32.153-201.215,0
	c-46.167,34.907-44.599,118.24-44.599,118.24H240.94z"/>
<path fill="#D5E9F2" d="M425.904,157.429c0,3.437-2.785,6.223-6.223,6.223h-69.492c-3.437,0-6.223-2.786-6.223-6.223v-21.781
	c0-3.437,2.786-6.223,6.223-6.223h69.492c3.438,0,6.223,2.786,6.223,6.223V157.429z"/>
<g>
	<polygon fill="#D5E9F2" points="366.435,146.02 375.769,58.896 388.216,58.896 403.437,146.538 	"/>
	<circle fill="#D5E9F2" cx="382.343" cy="58.896" r="15.039"/>
	<path fill="#A8D7E9" d="M391.729,47.149c0.962,1.982,1.503,4.208,1.503,6.56c0,8.306-6.733,15.039-15.04,15.039
		c-3.552,0-6.813-1.234-9.387-3.293c2.437,5.019,7.582,8.479,13.536,8.479c8.306,0,15.04-6.733,15.04-15.039
		C397.382,54.141,395.173,49.905,391.729,47.149z"/>
</g>
<polygon fill="#A8D7E9" points="227.282,407.393 542.59,407.393 583.04,355.533 186.832,355.533 "/>
<path fill="#A8D7E9" d="M425.904,147.246c0,2.187-1.393,3.96-3.111,3.96h-34.746c-1.719,0-3.112-1.773-3.112-3.96v-13.861
	c0-2.187,1.393-3.96,3.112-3.96h34.746c1.719,0,3.111,1.773,3.111,3.96V147.246z"/>
<path fill="#FFFFFF" d="M322.872,173.592c-5.055-9.67-27.919-4.133-35.39-0.606c-6.104,2.881-17.15,9.267-24.192,16.04
	c-5.588,4.45-10.578,9.629-14.917,15.467c-3.605,4.851-10.408,14.843-6.046,21.211c4.797,7.003,12.895,0.932,16.918-3.111
	c10.471-10.526,18.513-21.803,32.71-28.213C298.938,191.227,328.83,184.992,322.872,173.592z"/>
<path fill="#FFFFFF" d="M376.352,50.224c-7.082,1.712-4.374,16.509,4.338,8.543C387.616,52.434,380.359,48.45,376.352,50.224z"/>
<path fill="#D5E9F2" d="M599.857,524.877l-61.625-106.282H385.621h-1.371H231.638l-61.624,106.282c0,0,2.639,44.286,17.502,84.769
	c22.85,62.231,44.631,87.124,44.631,87.124l75.421,29.127l76.681,7.049v0.127c0,0,0.514-0.063,0.686-0.063
	c0.172,0,0.686,0.063,0.686,0.063v-0.127l76.682-7.049l75.421-29.127c0,0,27.363-35.264,44.631-87.124
	C595.979,568.729,599.857,524.877,599.857,524.877z"/>
<path fill="#A8D7E9" d="M538.232,418.595h-72.604l61.625,106.282c0,0-3.879,43.852-17.503,84.769
	c-17.268,51.86-24.997,72.514-44.631,87.124c-16.216,12.066-75.421,29.127-75.421,29.127l-41.065,3.775l35.616,3.273v0.127
	c0,0,0.514-0.063,0.686-0.063c0.172,0,0.686,0.063,0.686,0.063v-0.127l76.682-7.049l75.421-29.127c0,0,27.363-35.264,44.631-87.124
	c13.624-40.917,17.503-84.769,17.503-84.769L538.232,418.595z"/>
<polygon fill="#A8D7E9" points="170.014,524.877 599.857,524.877 583.102,556.749 "/>
<path fill="#FFFFFF" d="M256.301,595.356c-1.222-15.419,9.307-36.684-8.297-44.827c-9.043-4.183-24.322-5.9-31.319,3.082
	c-2.576,3.307-3.876,7.474-4.118,11.794c-2.522,11.003,3.4,27.093,6.165,36.951c3.255,11.606,14.548,52.425,35.342,41.31
	C268.247,636.09,257.207,606.777,256.301,595.356z"/>
<path fill="#FFFFFF" d="M278.913,440.79c-9.351-13.339-22.504-8.896-31.866,0.786c-20.833,12.681-42.953,64.493-11.459,69.561
	c18.157,2.922,23.721-19.204,29.872-31.164C271.1,469.003,288.093,453.886,278.913,440.79z"/>
<path fill="#D5E9F2" d="M556.104,418.595c0,0,134.836-83.806,160.766-83.806s15.559,46.674-25.93,97.651
	c-40.258,49.466-79.864,78.959-79.864,78.959L556.104,418.595z"/>
<path fill="#A8D7E9" d="M716.869,334.789c-2.591,0-6.271,0.839-10.794,2.345c-0.743,18.235-14.485,47.984-40.028,79.371
	c-27.639,33.96-54.969,58.505-69.388,70.557l14.416,24.338c0,0,39.606-29.493,79.864-78.959
	C732.428,381.463,742.799,334.789,716.869,334.789z"/>
<path fill="#D5E9F2" d="M219.857,418.595c0,0-167.75-27.085-188.396-18.499c-20.646,8.587,3.291,45.414,53.449,75.649
	c48.672,29.338,77.015,37.332,77.015,37.332L219.857,418.595z"/>
<path fill="#A8D7E9" d="M31.46,400.097c2.063-0.858,5.276-1.354,9.382-1.552c6.717,15.483,27.652,36.595,58.535,55.21
	c33.415,20.142,58.786,31.735,82.017,27.568l-19.47,31.754c0,0-28.343-7.993-77.015-37.332
	C34.751,445.51,10.814,408.684,31.46,400.097z"/>
<path fill="#FFFFFF" d="M108.186,418.768c-4.756-7.561-21.609-12.095-29.537-11.668c-4.077,0.22-6.775,1.618-8.311,3.541
	c-3.736,2.35-3.38,5.376-0.665,8.413c1.303,2.705,3.948,5.006,7.593,5.765l-0.014-0.14
	C92.744,433.272,120.215,437.894,108.186,418.768z"/>
<path fill="#FFFFFF" d="M687.861,354.288c-3.548-2.325-13.845,2.915-16.768,4.354c-4.887,2.404-17.519,10.348-20.153,17.932
	c-2.936,3.966-3.452,7.88,1.397,10.293c7.322,3.644,27.692-12.857,32.11-18.294C687.201,365.184,692.716,357.469,687.861,354.288z"
	/>
<path fill="#D5E9F2" d="M231.282,705.949c0,0,27.372,71.4,50.3,73.734c22.927,2.333,23.597-46.611,23.597-46.611L231.282,705.949z"
	/>
<path fill="#A8D7E9" d="M286.732,726.016c-0.266,6.93-2.386,40.717-18.502,45.002c4.717,4.923,9.514,8.195,14.13,8.666
	c22.928,2.333,23.597-46.611,23.597-46.611L286.732,726.016z"/>
<path fill="#D5E9F2" d="M470.084,733.072c0,0,35.021,53.8,80.119,42.56c18.865-4.702-10.89-69.683-10.89-69.683L470.084,733.072z"/>
<path fill="#A8D7E9" d="M539.313,705.949l-18.78,7.357c7.565,19.017,19.521,54.242,5.814,57.658
	c-3.7,0.922-7.331,1.398-10.883,1.512c10.444,4.375,22.201,6.28,34.738,3.155C569.068,770.93,539.313,705.949,539.313,705.949z"/>
<path fill="#3AEDB1" d="M425.973,297.08c-1.334-0.04-2.459,1.019-2.499,2.36c-0.005,0.147-0.439,11.051-7.372,16.771
	c-6.625,5.465-18.635,7.294-24.465,7.277c-5.447,0.238-17.84-1.813-24.465-7.277c-6.933-5.72-7.367-16.623-7.372-16.771
	c-0.04-1.342-1.166-2.4-2.5-2.36c-1.343,0.038-2.401,1.157-2.364,2.5c0.015,0.537,0.468,13.229,9.139,20.383
	c8.853,7.304,20.272,8.415,26.405,8.415c7.318,0,19.866-1.111,28.717-8.415c8.672-7.154,9.124-19.847,9.139-20.383
	C428.374,298.237,427.316,297.118,425.973,297.08z"/>
<g>
	<g>
		<path fill="#3AEDB1" d="M337.897,276.46c-1.905,0-3.46-1.533-3.483-3.443c-0.001-0.024-0.126-4.286-2.69-8.367
			c-3.306-5.263-9.161-7.93-17.401-7.93c-0.056,0-0.111,0-0.166,0c-17.783,0.077-20.23,14.979-20.326,15.614
			c-0.286,1.903-2.065,3.213-3.963,2.926c-1.903-0.286-3.213-2.061-2.927-3.963c1.117-7.416,8.234-21.462,27.186-21.543
			c0.064,0,0.134,0,0.198,0c26.482,0,27.052,22.951,27.055,23.183c0.022,1.924-1.52,3.501-3.443,3.523
			C337.924,276.46,337.911,276.46,337.897,276.46z"/>
	</g>
	<g>
		<path fill="#3AEDB1" d="M479.559,276.46c-1.904,0-3.459-1.533-3.482-3.443c0-0.024-0.125-4.286-2.689-8.367
			c-3.307-5.263-9.16-7.93-17.4-7.93c-0.057,0-0.111,0-0.167,0c-17.783,0.077-20.229,14.979-20.325,15.614
			c-0.287,1.903-2.064,3.213-3.963,2.926c-1.903-0.286-3.213-2.061-2.928-3.963c1.117-7.416,8.234-21.462,27.187-21.543
			c0.064,0,0.134,0,0.198,0c26.482,0,27.053,22.951,27.055,23.183c0.022,1.924-1.52,3.501-3.443,3.523
			C479.586,276.46,479.572,276.46,479.559,276.46z"/>
	</g>
</g>
</svg>
